<?xml version="1.0" encoding="UTF-8"?>
<svg id="Layer_1" data-name="Layer 1" xmlns="http://www.w3.org/2000/svg" viewBox="0 0 100 100">
  <defs>
    <style>
      .cls-1 {
        fill: #fedeb8;
      }
    </style>
  </defs>
  <path class="cls-1" d="M50,18.32l-4.48-4.91C35,1.87,15.71,5.85,8.75,20.35c-3.27,6.82-4.01,16.67,1.96,29.23,5.75,12.1,17.71,26.59,39.29,42.38,21.58-15.79,33.53-30.28,39.29-42.38,5.97-12.57,5.24-22.41,1.96-29.23-6.96-14.5-26.25-18.49-36.77-6.95l-4.48,4.92ZM50,100C-45.83,32.45,20.49-20.27,48.9,7.62c.38.37.74.75,1.1,1.14.35-.39.72-.77,1.1-1.13,28.4-27.91,94.73,24.82-1.1,92.37"/>
</svg>