<?xml version="1.0" encoding="UTF-8"?>
<svg id="Layer_1" data-name="Layer 1" xmlns="http://www.w3.org/2000/svg" viewBox="0 0 100 100">
  <defs>
    <style>
      .cls-1 {
        fill: #fedeb8;
      }
    </style>
  </defs>
  <path class="cls-1" d="M50,50c13.81,0,25-11.19,25-25S63.81,0,50,0s-25,11.19-25,25,11.19,25,25,25M66.67,25c0,9.2-7.46,16.67-16.67,16.67s-16.67-7.46-16.67-16.67,7.46-16.67,16.67-16.67,16.67,7.46,16.67,16.67M100,91.67c0,8.33-8.33,8.33-8.33,8.33H8.33s-8.33,0-8.33-8.33,8.33-33.33,50-33.33,50,25,50,33.33M91.67,91.63c0-2.05-1.28-8.22-6.93-13.87s-15.66-11.1-34.73-11.1-29.3,5.67-34.73,11.1c-5.65,5.65-6.92,11.82-6.93,13.87h83.33Z"/>
</svg>