<?xml version="1.0" encoding="UTF-8"?>
<svg id="Layer_1" data-name="Layer 1" xmlns="http://www.w3.org/2000/svg" viewBox="0 0 200 200">
  <defs>
    <style>
      .cls-1 {
        fill: #fedeb8;
      }
    </style>
  </defs>
  <path class="cls-1" d="M76.92,192.86v-50.07c0-3.5,3.85-7.07,7.69-7.07h30.77c3.85,0,7.69,3.57,7.69,7.14v50c0,3.94,3.44,7.14,7.69,7.14h61.54c4.25,0,7.69-3.2,7.69-7.14v-99.99c0-1.9-.8-3.71-2.25-5.06l-20.83-19.33V21.44c0-3.94-3.44-7.14-7.69-7.14h-15.38c-4.25,0-7.69,3.2-7.69,7.14v18.47L105.45,2.1c-3-2.79-7.87-2.8-10.88-.01,0,0,0,0-.01.01L2.25,87.81C.8,89.15,0,90.97,0,92.86v99.99c0,3.94,3.44,7.14,7.69,7.14h61.54c4.25,0,7.69-3.2,7.69-7.14"/>
</svg>