<?xml version="1.0" encoding="UTF-8"?>
<svg id="Layer_1" data-name="Layer 1" xmlns="http://www.w3.org/2000/svg" viewBox="0 0 200 141.95">
  <defs>
    <style>
      .cls-1 {
        fill: #d80621;
      }
    </style>
  </defs>
  <polygon class="cls-1" points="200 107.14 183.33 125 100 35.71 16.67 125 0 107.14 100 0 200 107.14"/>
  <path class="cls-1" d="M125,134.26c-.01.16-.02.34,0,.52.11,2.17,1.83,5.18,2.12,7.17l-2.12-.22-21.75-2.33s-4.47-.06-6.8,0l-21.45,2.21-1.97.2c.55-2.52,1.97-4.97,1.97-7.55,0-.15,0-.3-.01-.45l-.38-.78-24.61-19.05,5.75-2.7.61-1.14-4.39-15.63,14.19,2.82c.76,0,1.71-.17,2.03-.91l2.03-6.31,4.78,4.95,5.7,5.91.81.84c1.96,1.7,3.48.99,3.68-.84.04-.38.02-.8-.06-1.27l-4.68-24.02,7.43,3.46c1.32.55,2.38-.08,3.34-.88l8.59-15.3.34-.18c.15.49.42.98.68,1.42,2.52,4.33,4.92,9.28,7.63,13.41.7,1.07,1.76,1.98,3.21,1.68l7.87-3.62-4.67,24.02c-.06.45-.08.89-.04,1.27.15,1.72,1.28,2.66,3.35,1.12l1.1-1.12,5.72-5.85,4.77-4.87,2.08,6.27c.49.85,1.49.91,2.43.77l13.75-2.8-4.39,15.64c.12.53.34,1.05.85,1.33l5.51,2.43-.23.42-24.14,18.51c-.25.35-.52.72-.59,1.14-.02.09-.03.18-.04.29Z"/>
</svg>