<?xml version="1.0" encoding="UTF-8"?>
<svg id="Layer_1" data-name="Layer 1" xmlns="http://www.w3.org/2000/svg" viewBox="0 0 100 100">
  <defs>
    <style>
      .cls-1 {
        fill: #fff;
      }
    </style>
  </defs>
  <path class="cls-1" d="M54.71,2.12c-2.6-2.83-6.82-2.83-9.43,0L.98,50.31c-1.3,1.42-1.3,3.72,0,5.13,1.3,1.42,3.42,1.42,4.72,0h0l4.31-4.69v38.38c0,6.01,4.48,10.88,10,10.88h59.99c5.52,0,10-4.87,10-10.88v-38.38l4.31,4.69c1.3,1.42,3.42,1.42,4.72,0s1.3-3.72,0-5.13l-15.69-17.06V9.37c0-2-1.49-3.63-3.33-3.63h-6.67c-1.84,0-3.33,1.62-3.33,3.63v9.37L54.71,2.12ZM83.33,43.5v45.63c0,2-1.49,3.63-3.33,3.63H20c-1.84,0-3.33-1.62-3.33-3.63v-45.63L50,7.25l33.33,36.25Z"/>
</svg>