<?xml version="1.0" encoding="UTF-8"?>
<svg id="Layer_1" data-name="Layer 1" xmlns="http://www.w3.org/2000/svg" viewBox="0 0 100 100">
  <defs>
    <style>
      .cls-1 {
        fill: #fff;
      }
    </style>
  </defs>
  <path class="cls-1" d="M99.03,50.31l-15.69-17.06V9.37c0-2-1.5-3.63-3.34-3.63h-6.66c-1.84,0-3.34,1.63-3.34,3.63v9.37L54.72,2.12c-2.61-2.83-6.83-2.83-9.43,0L.97,50.31c-1.3,1.42-1.3,3.72,0,5.13,1.31,1.42,3.42,1.42,4.72,0l4.31-4.69v38.38c0,6.01,4.47,10.87,10,10.87h59.99c5.52,0,10-4.86,10-10.87v-38.38l4.31,4.69c1.3,1.42,3.41,1.42,4.72,0,1.3-1.41,1.3-3.71,0-5.13Z"/>
</svg>