<?xml version="1.0" encoding="UTF-8"?>
<svg id="Layer_1" data-name="Layer 1" xmlns="http://www.w3.org/2000/svg" viewBox="0 0 100 100">
  <defs>
    <style>
      .cls-1 {
        fill: #fff;
      }
    </style>
  </defs>
  <path class="cls-1" d="M50,50c13.81,0,25-11.19,25-25S63.81,0,50,0s-25,11.19-25,25,11.19,25,25,25ZM50.49,4.81c11.05,0,20,8.95,20,20s-8.95,20-20,20-20-8.95-20-20S39.44,4.81,50.49,4.81Z"/>
  <path class="cls-1" d="M50,58.33C8.33,58.33,0,83.33,0,91.67s8.33,8.33,8.33,8.33h83.33s8.33,0,8.33-8.33-8.33-33.33-50-33.33ZM83.82,95.81H17.16s-6.67,0-6.67-6.67,6.67-26.67,40-26.67,40,20,40,26.67-6.67,6.67-6.67,6.67Z"/>
</svg>